<?xml version="1.0" encoding="UTF-8" standalone="no"?>
<!-- Created with Inkscape (http://www.inkscape.org/) -->

<svg
   width="191.8792mm"
   height="118.91402mm"
   viewBox="0 0 191.8792 118.91402"
   version="1.1"
   id="svg1"
   inkscape:version="1.3.2 (091e20e, 2023-11-25)"
   sodipodi:docname="logo-stacked.svg"
   xmlns:inkscape="http://www.inkscape.org/namespaces/inkscape"
   xmlns:sodipodi="http://sodipodi.sourceforge.net/DTD/sodipodi-0.dtd"
   xmlns="http://www.w3.org/2000/svg"
   xmlns:svg="http://www.w3.org/2000/svg">
  <sodipodi:namedview
     id="namedview1"
     pagecolor="#ffffff"
     bordercolor="#000000"
     borderopacity="0.25"
     inkscape:showpageshadow="2"
     inkscape:pageopacity="0.0"
     inkscape:pagecheckerboard="0"
     inkscape:deskcolor="#d1d1d1"
     inkscape:document-units="mm"
     inkscape:zoom="0.84096521"
     inkscape:cx="452.45629"
     inkscape:cy="451.86174"
     inkscape:window-width="1920"
     inkscape:window-height="1027"
     inkscape:window-x="1440"
     inkscape:window-y="25"
     inkscape:window-maximized="0"
     inkscape:current-layer="layer1" />
  <defs
     id="defs1" />
  <g
     inkscape:label="Layer 1"
     inkscape:groupmode="layer"
     id="layer1"
     transform="translate(-8.9320098,-38.999247)">
    <g
       id="g2"
       transform="matrix(1.7511182,0,0,1.7511182,61.031179,-111.11532)">
      <path
         fill="#0c2641"
         d="m 41.866745,110.53997 0.342384,5.03357 q 0.0051,0.0652 0.07027,0.0677 c 0.919839,0.0319 1.614828,0.0907 2.358366,0.54807 q 0.05877,0.0358 0.09837,-0.0205 0.540403,-0.79847 1.421916,-1.27755 1.152355,-0.62472 2.459294,-0.96966 a 0.22740467,0.22740467 0 0 1 0.284893,0.20824 q 0.06005,1.19707 -0.410094,2.34176 a 0.05110217,0.05110217 0 0 0 0.03705,0.069 c 1.428305,0.31556 2.286822,1.15875 3.279481,2.13863 q 0.236347,0.23379 -0.01405,0.46886 c -1.444916,1.3606 -3.644862,1.924 -5.481986,1.03482 q -0.07027,-0.0345 -0.09582,0.0396 c -0.540407,1.53562 -1.883117,2.55383 -3.533717,2.54361 q -4.14183,-0.0243 -8.638821,-0.0319 -0.218463,0 -0.419039,0.12903 -1.35804,0.8764 -2.822117,1.52668 c -1.558615,0.58639 -3.177278,1.06803 -4.792107,1.11658 q -2.465678,0.0728 -4.275973,-0.34366 c -1.977655,-0.45353 -3.692134,-1.2865 -5.434717,-2.37242 q -0.111148,-0.069 -0.398597,-0.0664 -4.465053,0.0422 -8.7205871,0.0217 c -1.5420075,-0.006 -2.8029535,-1.00927 -3.422568,-2.36476 a 0.12392277,0.12392277 0 0 0 -0.1584166,-0.0639 c -1.6391016,0.62983 -3.46344868,0.25679 -4.8547035,-0.74993 q -0.3347191,-0.24273 -0.5416841,-0.50974 a 0.2657313,0.26445375 47.9 0 1 0.016616,-0.34494 q 1.05014979,-1.11914 2.2331643,-1.77836 0.37815573,-0.21079 1.1114722,-0.31428 0.09965,-0.014 0.053657,-0.10348 c -0.3449399,-0.69243 -0.5212424,-1.42702 -0.4918577,-2.20633 0.010213,-0.27979 0.1571387,-0.41649 0.4433093,-0.33728 1.4985736,0.41138 2.8693877,0.90323 3.7905055,2.20378 q 0.039603,0.0549 0.097094,0.0179 c 0.5046345,-0.32194 1.0527057,-0.5123 1.6595434,-0.48803 q 0.3334412,0.014 0.6617732,0.009 0.086873,-10e-4 0.09326,-0.0881 c 0.215908,-2.88856 0.4267041,-5.74389 0.4062624,-8.61328 q -0.00132,-0.17895 -0.134141,-0.29776 Q 7.8838104,106.48245 7.577198,106.20011 6.1029,104.83824 6.1450587,102.81204 c 0.03705,-1.8103 0.8661824,-3.238604 2.3047087,-4.30025 0.5634011,-0.416483 1.0412068,-0.61195 1.7042576,-0.350052 q 0.613225,0.242737 1.114026,0.670716 c 1.294164,1.103808 1.786022,2.482286 1.733642,4.187826 q -0.0038,0.12137 0.06388,0.0217 0.845743,-1.25072 1.745141,-2.06836 1.392534,-1.264777 3.224546,-2.336644 0.05749,-0.03449 0.06004,-0.100928 l 0.09837,-2.34048 a 0.06387772,0.06387772 0 0 0 -0.06643,-0.06643 c -1.373372,0.02939 -2.693085,-0.291282 -3.653805,-1.332489 q -0.739704,-0.799748 -0.891734,-1.786022 -0.375599,-2.441406 1.552229,-3.758565 1.286497,-0.877679 2.916655,-0.519965 0.05494,0.01151 0.09965,-0.02172 0.107315,-0.08049 0.196744,-0.175024 c 0.504635,-0.532742 1.286497,-0.776754 2.004484,-0.737151 q 0.373044,0.02045 0.527629,0.02426 0.06388,0.0013 0.103481,-0.04855 c 1.139579,-1.481963 2.85278,-2.307265 4.707787,-1.976377 q 1.34271,0.238903 2.202506,0.885346 0.554458,0.416481 1.133189,1.087197 0.04088,0.04727 0.103484,0.03705 c 0.968385,-0.158417 1.921441,0.279783 2.657311,0.886624 a 0.18780049,0.18780049 0 0 0 0.149476,0.04216 q 0.358992,-0.05238 0.747368,-0.08432 c 1.415529,-0.118811 2.659867,0.661773 3.38041,1.862675 1.194511,1.991709 0.121367,4.580032 -2.009595,5.369562 -0.64261,0.238903 -1.419363,0.244012 -2.132238,0.228682 q -0.06771,-0.0013 -0.06643,0.06643 l 0.02683,2.311096 a 0.23507,0.23762511 16.2 0 0 0.106037,0.195466 c 0.574898,0.376878 1.227728,0.719264 1.736196,1.115306 q 1.566281,1.221341 2.80551,2.778681 0.06004,0.0754 0.07282,-0.0191 0.04599,-0.35261 0.100925,-0.70394 c 0.335997,-2.111796 2.722467,-4.89942 5.06167,-3.371464 1.949548,1.27372 2.898772,3.559264 2.137349,5.823094 q -0.535295,1.59055 -2.01598,2.37498 -0.203131,0.10731 -0.196744,0.47269 0.03194,1.69531 0.176303,3.38424 z M 14.989556,92.853509 c 0.712877,2.207614 3.629533,2.422244 4.601752,0.283617 q 0.238903,-0.525073 0.424148,-1.114028 c 0.420315,0.190357 0.666882,0.647721 1.02843,0.922396 q 1.042485,0.790805 2.335369,0.277228 1.059093,-0.419037 1.476854,-1.434693 a 0.0728206,0.07154304 37.3 0 1 0.123923,-0.01662 q 0.206965,0.265732 0.35516,0.513578 c 0.508466,0.847018 1.480685,1.253281 2.418411,1.153631 q 1.437249,-0.154586 2.065803,-1.389981 a 0.15586163,0.15586163 0 0 1 0.283618,0.01021 c 0.273396,0.650277 0.500803,1.315881 0.99777,1.819238 q 1.016934,1.027155 2.433741,0.599173 c 2.11052,-0.637501 2.198671,-3.522218 0.10987,-4.288751 q -0.900676,-0.246568 -1.595665,0.433091 -0.194188,0.190358 -0.332165,0.399876 a 0.08304103,0.08304103 0 0 1 -0.148196,-0.02045 c -0.13031,-0.410094 -0.275953,-0.936448 -0.5749,-1.218788 q -1.124246,-1.055259 -2.320039,-0.0626 a 0.08176348,0.08176348 0 0 1 -0.125198,-0.02556 Q 28.3285,89.266103 28.056382,88.841954 c -1.001602,-1.568836 -3.119787,-2.27277 -4.764,-1.349097 -0.774198,0.435645 -1.34782,1.176626 -1.688926,2.00065 q -0.102206,0.24529 -0.348774,0.306612 -0.06387,0.01535 -0.117533,-0.02172 -0.173749,-0.120092 -0.458642,-0.355161 c -0.73715,-0.609394 -1.577782,0.03833 -1.944438,0.743537 -0.143087,0.27595 0.02811,0.586396 -0.275953,0.826577 a 0.14308609,0.14308609 0 0 1 -0.205684,-0.03066 C 17.83467,90.368631 17.318537,89.98281 16.549452,90.093956 q -0.661774,0.09582 -1.193237,0.760145 -0.694989,0.871292 -0.366659,1.999372 z m 12.504703,8.697591 0.399875,0.0984 0.397319,0.14053 q 1.175348,0.41904 2.252327,0.99138 0.05621,0.0294 0.05621,-0.0332 l 0.0026,-3.991082 a 0.05365728,0.05493484 8.2 0 0 -0.03833,-0.05238 l -2.280434,-0.70521 -0.293838,-0.05238 -0.784418,-0.113702 -0.315555,-0.04216 q -0.369216,-0.388376 -0.249124,-0.692433 0.02426,-0.06004 0.08432,-0.07921 l 0.807416,-0.259345 0.376878,0.06132 q 1.332489,0.181414 2.593435,0.634944 0.06643,0.02299 0.06643,-0.04727 v -2.001928 a 0.26700884,0.2657313 16.8 0 0 -0.120089,-0.222295 q -0.582565,-0.379434 -0.826577,-1.060371 -0.02045,-0.05749 -0.07793,-0.03577 l -1.245616,0.471419 -0.778031,0.111146 c -1.029708,-0.04471 -1.838401,-0.246568 -2.521892,-1.033542 q -0.04471,-0.05238 -0.09071,0 -0.864904,0.990105 -2.2255,1.047594 c -0.784418,0.0345 -1.299271,-0.24529 -1.950826,-0.622168 q -0.05493,-0.03194 -0.09198,0.02045 -0.477806,0.680937 -1.1498,1.203455 -0.05238,0.0396 -0.05877,0.104759 -0.02299,0.244015 -0.02299,0.489305 0.01021,3.478781 0.02043,6.933284 a 0.06515527,0.06515527 0 0 0 0.09965,0.0562 c 2.427353,-1.48196 5.094885,-1.86395 7.965551,-1.31971 z m 12.572412,14.13358 0.969663,-0.0115 q 0.06516,0 0.06005,-0.0664 c -0.146918,-2.06197 -0.226126,-4.39479 -0.293836,-5.97385 q -0.05621,-1.29671 -0.0511,-3.59503 0,-0.092 -0.04471,-0.15075 0.05494,-0.0741 0.08432,-0.0818 1.011822,-0.2274 1.610995,-1.0016 c 1.236673,-1.59694 0.740981,-3.80328 -0.786974,-5.015679 -0.692434,-0.54935 -1.393812,-0.721818 -2.187173,-0.205688 q -1.543286,1.002887 -1.751526,3.016307 -0.125201,1.2009 0.572344,2.18206 c 0.416483,0.5864 0.844463,0.77548 1.451303,1.02844 a 0.20824136,0.20824136 0 0 1 0.127754,0.18779 q 0.02426,1.98277 -0.106037,4.00258 -0.178858,2.79401 -0.371769,5.61102 a 0.06771038,0.06771038 0 0 0 0.06771,0.0728 z M 9.1971253,106.11325 q 0.1648037,0.36538 0.1660816,0.75503 c 0.00132,1.00671 0.00638,2.00448 -0.038327,3.02269 -0.1009253,2.22678 -0.1903545,3.99747 -0.1737466,5.74772 q 0.00132,0.0677 0.067712,0.0664 l 0.7243709,-0.001 0.7524798,0.003 q 0.06771,0 0.06516,-0.0677 -0.02299,-0.65666 -0.07027,-1.31332 -0.1993,-2.69181 -0.427982,-5.38106 -0.06004,-0.71543 -0.0396,-2.65604 c 0.0026,-0.24145 0.103481,-0.39348 0.26062,-0.55445 q 0.387099,-0.39732 0.756312,-0.78187 c 0.626001,-0.65283 0.654108,-1.66593 0.609393,-2.55511 -0.0626,-1.25583 -0.775475,-2.489947 -1.9367707,-3.027798 -0.2708407,-0.126479 -0.427982,-0.07793 -0.6566641,0.08304 q -2.3225918,1.631438 -1.7451387,4.393508 c 0.1967442,0.94284 0.794639,1.37976 1.4270276,1.95849 0.098372,0.0894 0.1699154,0.21335 0.2593445,0.30917 z M 13.086,113.75302 c -0.383265,-0.30406 -0.33855,-0.89556 0.0511,-1.17663 0.40754,-0.29383 0.86746,-0.0715 1.310772,-0.0524 a 0.08176348,0.08176348 0 0 0 0.07282,-0.12264 q -0.118813,-0.20186 -0.189079,-0.41776 c -0.108593,-0.33472 -0.02556,-0.90962 0.374325,-1.03866 0.263176,-0.0843 0.784418,-0.092 1.029708,-0.0422 q 0.173746,0.0358 0.176302,-0.14181 l 0.01278,-0.99011 q 0.0026,-0.18269 -0.178856,-0.16991 -0.546793,0.0383 -0.876403,-0.0958 -1.392534,-0.56723 -2.153957,-1.9406 c -0.204409,-0.37049 -0.01405,-0.6375 0.332166,-0.80231 q 1.124246,-0.53785 2.047917,-0.61195 0.893011,-0.0703 1.469189,0.59662 0.04216,0.0498 0.06771,-0.0102 0.544238,-1.31971 1.533065,-2.50017 a 0.28872727,0.28744973 53.1 0 0 0.04216,-0.30023 c -0.05366,-0.12264 -0.09199,-0.21846 -0.09199,-0.35644 q -0.0026,-1.7413 0.0026,-3.49666 a 0.03066131,0.03193886 73.1 0 0 -0.04855,-0.0256 q -1.527956,0.99394 -2.792733,2.30982 c -0.550627,0.57234 -0.981162,1.22645 -1.480685,1.93294 q -0.242737,0.34366 -0.781865,0.30022 -0.06515,-0.005 -0.0907,0.0562 c -0.337275,0.83297 -1.000326,1.52285 -1.685095,2.07859 a 0.17119228,0.17374739 71.4 0 0 -0.0626,0.12392 q -0.03194,0.603 0.03194,1.22262 0.320667,3.04569 0.683493,6.70844 0.04088,0.41265 0.08048,0.8304 0.0064,0.0652 0.07282,0.0652 l 3.964252,0.004 a 0.03832663,0.03704908 72.8 0 0 0.03066,-0.0588 q -0.481637,-0.70904 -0.921116,-1.48835 -0.03194,-0.0562 -0.09582,-0.0549 c -0.647721,0.0102 -1.392536,0.0984 -1.936774,-0.33472 z m 24.328469,-6.7161 q 0.08943,0.27339 -0.05749,0.5123 -0.714153,1.1549 -1.883114,1.78602 -0.539128,0.29 -1.303107,0.22229 -0.06771,-0.006 -0.07154,0.0613 l -0.06643,1.20728 q -0.0026,0.0575 0.05494,0.0588 0.44331,0.0115 0.878957,0.006 0.439478,-0.004 0.592786,0.0741 c 0.491857,0.25424 0.178858,1.04249 -0.02426,1.40914 a 0.06771038,0.06771038 0 0 0 0.06515,0.0997 q 0.549349,-0.0422 0.992661,0.008 c 0.937723,0.10603 0.740982,1.14596 0.149474,1.51645 -0.367938,0.22996 -1.252003,0.12393 -1.732365,0.13926 a 0.10986967,0.10986967 0 0 0 -0.08687,0.0498 l -0.907063,1.41937 q -0.03961,0.0639 0.03449,0.0639 l 3.960419,0.009 q 0.07282,0 0.08049,-0.0728 0.332163,-3.30504 0.592786,-6.6369 0.08943,-1.1613 0.09582,-2.0773 a 0.26445375,0.26317619 20 0 0 -0.09709,-0.20697 c -0.68988,-0.56212 -1.388703,-1.12041 -1.851176,-1.90994 -0.186523,-0.31683 -0.576178,-0.22996 -0.794639,-0.58256 q -0.855962,-1.38998 -2.259994,-2.71608 -0.822746,-0.77803 -1.797518,-1.28523 -0.08688,-0.0447 -0.0856,0.0524 0.03833,1.73493 0.0077,3.61676 -0.0013,0.0779 -0.127754,0.19419 -0.04727,0.0422 -0.0026,0.0869 1.0757,1.08081 1.594387,2.52701 a 0.04215929,0.04215929 0 0 0 0.07154,0.014 c 0.995217,-1.12425 2.883442,-0.43821 3.886322,0.23379 q 0.06515,0.0447 0.09071,0.12009 z m -19.836587,3.87737 1.498571,-10e-4 0.555736,-0.003 7.241177,-0.008 q 0.06516,0 0.01916,-0.0447 c -0.269563,-0.25807 -0.205684,-0.67199 0.169915,-0.77292 0.465029,-0.12648 0.830411,0.48164 0.388377,0.75503 q -0.104759,0.0639 0.01789,0.0652 l 3.513275,0.0204 1.856285,0.009 q 0.03705,0 0.03961,-0.0383 c 0.121367,-2.26894 -0.571066,-4.4229 -2.263828,-6.04411 q -1.610995,-1.59567 -3.837773,-2.07603 -1.619938,-0.31556 -3.487722,-0.003 c -2.437574,0.40754 -4.227427,2.07986 -5.374671,4.2236 -0.66816,1.24945 -0.862349,2.60876 -0.766533,3.94892 a 0.06132261,0.06132261 0 0 0 0.07537,0.0549 z m 16.603096,-3.18622 q -0.255511,0.37305 -0.224848,0.73843 0.01151,0.15203 0.162247,0.1252 1.029708,-0.18397 1.650601,-0.81125 0.157139,-0.0818 0.268287,-0.28234 0.04727,0.008 0.06132,-0.0268 0.02172,-0.0549 -0.03066,-0.083 -0.751202,-0.40371 -1.378482,-0.2619 -0.356436,0.0805 -0.508465,0.60172 z m -20.048659,-0.0639 q 0.792083,0.74864 1.787297,0.83168 0.18269,0.0153 0.126479,-0.15969 -0.215908,-0.66816 -0.646443,-1.03737 -0.703932,-0.15714 -1.304383,0.069 -0.0626,0.023 -0.05494,0.0894 0.01278,0.11115 0.09199,0.20697 z m 5.008012,7.99365 10.863045,0.0205 2.285545,-0.0128 a 0.09326147,0.0894288 19.7 0 0 0.06899,-0.0307 q 1.034817,-1.15236 1.669761,-2.61005 l 0.287452,-0.76908 q 0.02683,-0.0728 -0.0511,-0.0741 l -1.898446,-0.003 -16.479174,0.0217 a 0.07026549,0.07154304 82.1 0 0 -0.06899,0.0894 c 0.330885,1.19324 1.114025,2.23317 1.838399,3.24627 q 0.08304,0.11498 0.224851,0.11625 z M 3.5260621,115.792 Q 3.2296679,115.56459 2.8412914,115.46878 L 2.3647635,115.3193 a 0.06771038,0.06771038 0 0 0 -0.083039,0.0881 q 0.2107962,0.57618 0.6004507,1.08081 0.1788583,0.23124 0.4841928,0.37049 0.3015032,0.13798 0.5774531,0.26063 0.063878,0.0281 0.1303126,0.009 0.228682,-0.0677 0.2976694,-0.26701 0.026829,-0.0767 -0.00384,-0.15203 -0.2478458,-0.60811 -0.8419068,-0.91728 z m 42.5157309,0.28106 q -0.733316,0.49952 -0.27723,1.22901 0.03449,0.0549 0.08687,0.0153 c 0.588952,-0.45481 1.291609,-0.48931 1.669764,-1.24051 l 0.251677,-0.63494 q 0.02811,-0.069 -0.04471,-0.0537 c -0.620892,0.13159 -1.202179,0.30789 -1.686372,0.68477 z m -41.1525817,3.24499 q 0.058769,0.80486 0.6055625,1.41936 0.6541055,0.9505 1.8575628,0.94795 14.3239384,-0.0192 28.6491574,0.0409 4.945411,0.0217 6.451647,-0.023 2.295766,-0.0664 2.606212,-2.25616 0.0064,-0.69371 -0.201853,-1.2009 c -0.542962,-1.25967 -1.456412,-1.42958 -2.799122,-1.42575 q -17.478222,0.0422 -34.9679392,0.0179 c -0.2912825,-0.001 -0.5608479,0.0677 -0.8150807,0.20185 q -1.359318,0.71671 -1.3861468,2.27788 z m -4.07412025,-0.71543 a 0.05493484,0.05621239 47 0 1 0.003836,-0.0971 Q 1.834583,117.983 3.0278168,117.99833 q 0.071543,0.001 0.026829,-0.0549 -0.4049845,-0.51741 -0.9453907,-0.44587 -1.40019873,0.18653 -2.39158188,1.30439 -0.0408808,0.046 0.0127794,0.0792 0.82274568,0.50464 1.72980878,0.65283 0.066432,0.0102 0.094538,-0.0498 l 0.2018533,-0.44203 q 0.025559,-0.0562 -0.034494,-0.069 -0.4586419,-0.0984 -0.90706309,-0.37049 z m 48.57133995,0.0562 q -0.509746,0.1993 -1.059093,0.3015 -0.07921,0.0153 -0.04344,0.0881 l 0.190354,0.38327 a 0.12264522,0.12392277 71.9 0 0 0.132866,0.0664 q 0.999048,-0.18652 1.654432,-0.63622 a 0.04215929,0.04343685 51.4 0 0 0.0077,-0.0639 c -0.671991,-0.74992 -1.496015,-1.38487 -2.56405,-1.27372 a 0.83041031,0.82657766 18.6 0 0 -0.517409,0.25551 q -0.153307,0.16097 -0.275952,0.35005 -0.126479,0.19547 0.09326,0.12137 1.19707,-0.40115 2.391582,0.2504 a 0.0868737,0.0868737 0 0 1 -0.01021,0.15714 z m -2.828507,-0.16097 a 0.18780049,0.18780049 0 0 0 -0.226126,0.28873 l 0.259342,0.31427 a 0.18780049,0.18780049 0 0 0 0.07154,0.0537 l 0.775475,0.3245 a 0.18780049,0.18780049 0 0 0 0.255511,-0.13031 l 0.03066,-0.13542 a 0.18780049,0.18780049 0 0 0 -0.102204,-0.21208 z m -43.2912065,0.15969 c -0.4803589,0.2108 -0.9313359,0.33089 -1.0616459,0.76653 q -0.019156,0.0639 0.047268,0.0741 0.8163587,0.1252 1.2916086,-0.62983 0.1022032,-0.12776 0.021722,-0.27595 -0.031938,-0.0601 -0.098372,-0.0664 -0.1264762,-0.0128 -0.2005754,0.13159 z m 15.9477125,4.19293 c 2.228054,1.02077 4.642631,1.48963 7.031657,1.3095 q 2.390306,-0.18141 4.498271,-1.30566 0.131588,-0.0703 -0.01662,-0.0703 l -11.496712,-0.008 q -0.17758,0 -0.01662,0.0741 z"
         id="path508"
         style="stroke-width:0.127755" />
      <path
         fill="#ffffff"
         d="m 33.644405,90.18853 q -0.0013,0.784418 -0.318111,1.296718 -0.610671,0.986271 -1.751528,1.04504 -0.373044,0.01916 -0.75759,-0.164806 -0.603003,-0.286171 -0.705209,-0.415203 -0.329608,-0.419039 -0.854684,-0.397319 c -0.244012,0.0089 -0.531463,0.07154 -0.75248,0.177578 q -0.812522,0.39221 -1.444914,0.445868 -0.420314,0.03705 -0.744812,-0.311725 -0.334719,-0.360269 -0.698823,-0.709041 -0.482915,-0.461197 -1.046319,-0.123922 c -0.394763,0.237624 -0.519964,0.689877 -0.896842,0.951777 q -0.595339,0.411372 -1.33632,0.452252 -0.196744,0.01151 -0.5123,-0.05877 -0.237625,-0.05238 -0.500803,-0.09454 -0.175025,-0.02683 -0.801026,-0.408819 -0.273397,-0.168637 -0.456086,0.0626 -0.03577,0.04471 -0.08815,0.06516 -0.145643,0.05494 -0.240181,0.173747 -0.01662,0.0051 -0.03449,0.0013 -0.03066,-0.0038 -0.05366,0.01662 -0.954334,0.852128 -2.014702,1.186847 -0.663051,0.209521 -1.452581,0.05238 -0.281062,-0.05621 -0.615781,-0.259344 -0.283617,-0.173747 -0.577455,-0.319389 -0.32833,-1.128081 0.366659,-1.999372 0.531463,-0.664329 1.193237,-0.760145 c 0.769085,-0.111146 1.285218,0.274674 1.70298,0.868735 a 0.14308609,0.14308609 0 0 0 0.205684,0.03066 c 0.304059,-0.240181 0.132866,-0.550627 0.275953,-0.826577 0.366656,-0.70521 1.207288,-1.352931 1.944438,-0.743537 q 0.284893,0.235069 0.458642,0.35516 0.05366,0.03705 0.117533,0.02172 0.246568,-0.06132 0.348774,-0.306613 c 0.341106,-0.824023 0.914728,-1.565005 1.688926,-2.000649 1.644213,-0.923674 3.762398,-0.219739 4.764,1.349097 q 0.272118,0.424148 0.49186,0.852128 a 0.08176348,0.08176348 0 0 0 0.125198,0.02556 q 1.195793,-0.992658 2.320039,0.0626 c 0.298947,0.282339 0.44459,0.808694 0.5749,1.218787 a 0.08304103,0.08304103 0 0 0 0.148196,0.02045 q 0.137977,-0.209518 0.332165,-0.399875 0.694989,-0.679659 1.595665,-0.433091 z"
         id="path509"
         style="stroke-width:0.127755" />
      <path
         fill="#bfc9cb"
         d="m 33.644405,90.18853 c 2.088801,0.766532 2.00065,3.65125 -0.10987,4.28875 q -1.416807,0.427982 -2.433741,-0.599172 C 30.603827,93.374751 30.37642,92.709147 30.103024,92.05887 a 0.15586163,0.15586163 0 0 0 -0.283618,-0.01021 q -0.628554,1.235395 -2.065803,1.38998 c -0.937726,0.09965 -1.909945,-0.306612 -2.418411,-1.153631 q -0.148195,-0.247845 -0.35516,-0.513577 a 0.0728206,0.07154304 37.3 0 0 -0.123923,0.01662 q -0.417761,1.015656 -1.476854,1.434692 -1.292884,0.513578 -2.335369,-0.277227 c -0.361548,-0.274675 -0.608115,-0.732039 -1.02843,-0.922396 q -0.125201,0.107315 -0.27723,0.152029 0.09454,-0.118811 0.240181,-0.173746 0.05238,-0.02045 0.08815,-0.06516 0.182689,-0.231238 0.456086,-0.0626 0.626001,0.38199 0.801026,0.408818 0.263178,0.04216 0.500803,0.09454 0.315556,0.07026 0.5123,0.05877 0.740981,-0.04088 1.33632,-0.452252 c 0.376878,-0.2619 0.502079,-0.714153 0.896842,-0.951778 q 0.563404,-0.337275 1.046319,0.123923 0.364104,0.348771 0.698823,0.709041 0.324498,0.348774 0.744812,0.311724 0.632392,-0.05366 1.444914,-0.445867 c 0.221017,-0.106038 0.508468,-0.168635 0.75248,-0.177578 q 0.525076,-0.02172 0.854684,0.397319 0.102206,0.129032 0.705209,0.415203 0.384546,0.18397 0.75759,0.164806 1.140857,-0.05877 1.751528,-1.04504 0.316833,-0.5123 0.318111,-1.296718 z"
         id="path510"
         style="stroke-width:0.127755" />
      <ellipse
         fill="#0c2641"
         cx="87.718758"
         cy="-29.351198"
         transform="rotate(101.8)"
         rx="0.55445856"
         ry="0.52635235"
         id="ellipse510"
         style="stroke-width:0.127755" />
      <circle
         fill="#0c2641"
         cx="39.215816"
         cy="91.860847"
         r="0.54296058"
         id="circle510"
         style="stroke-width:0.127755" />
      <path
         fill="#e8eae9"
         d="m 20.015456,92.023098 q -0.185245,0.588955 -0.424148,1.114028 c -0.972219,2.138627 -3.888875,1.923997 -4.601752,-0.283617 q 0.293838,0.145642 0.577455,0.319389 0.334719,0.203131 0.615781,0.259344 0.78953,0.157139 1.452581,-0.05238 1.060368,-0.334719 2.014702,-1.186847 0.02299,-0.02045 0.05366,-0.01661 0.01789,0.0038 0.03449,-0.0013 0.152029,-0.04472 0.27723,-0.15203 z"
         id="path511"
         style="stroke-width:0.127755" />
      <circle
         fill="#0c2641"
         cx="41.304626"
         cy="93.692856"
         r="0.55445862"
         id="circle511"
         style="stroke-width:0.127755" />
      <ellipse
         fill="#0c2641"
         cx="74.939217"
         cy="-56.947609"
         transform="rotate(121.9)"
         rx="0.56978923"
         ry="0.53657281"
         id="ellipse511"
         style="stroke-width:0.127755" />
      <path
         fill="#ffffff"
         d="m 27.521087,94.671469 0.01021,1.867783 a 0.10092679,0.10092679 0 0 1 -0.09582,0.102206 l -1.111472,0.07027 -0.186524,-0.0089 q -0.647721,-0.09965 -1.536898,-0.03961 -2.578105,0.171194 -4.798494,0.923674 -0.169915,0.05749 -0.169915,0.237625 v 0.499523 q -0.0013,0.201853 0.190357,0.136699 1.421916,-0.490582 2.59471,-0.655386 0.755037,-0.107315 2.133518,-0.09582 c 0.555736,0.0051 1.134468,-0.04727 1.704256,-0.01278 l 0.634947,0.09454 0.315555,0.04216 q 0.153305,0.02426 0.238903,0.0741 0.08432,0.0511 0.08432,0.201853 -0.0013,1.719588 -0.03449,3.441734 c -2.870666,-0.54424 -5.538198,-0.16225 -7.965551,1.31971 a 0.06515527,0.06515527 0 0 1 -0.09965,-0.0562 q -0.01021,-3.454506 -0.02043,-6.933288 0,-0.24529 0.02299,-0.489304 0.0064,-0.06515 0.05877,-0.104759 0.671994,-0.522518 1.149799,-1.203455 0.03705,-0.05238 0.09198,-0.02045 c 0.651555,0.376878 1.166407,0.656664 1.950826,0.622167 q 1.360596,-0.05749 2.2255,-1.047593 0.04599,-0.05238 0.09071,0 c 0.68349,0.786974 1.492184,0.988827 2.521892,1.033541 z"
         id="path512"
         style="stroke-width:0.127755" />
      <path
         fill="#a5b2b6"
         d="m 27.909464,96.821592 0.362826,-0.0089 q 0.06643,-0.0013 0.06515,-0.06771 l -0.03833,-2.184616 1.245616,-0.471419 q 0.05749,-0.02172 0.07793,0.03577 0.244012,0.680937 0.826577,1.060371 a 0.26700884,0.2657313 16.8 0 1 0.120089,0.222295 v 2.001928 q 0,0.07027 -0.06643,0.04727 -1.260946,-0.45353 -2.593435,-0.634944 z"
         id="path513"
         style="stroke-width:0.127755" />
      <path
         fill="#0c2641"
         d="m 11.615279,95.905536 a 0.88279006,0.82657766 70.4 0 1 -1.074819,-0.554358 0.88279006,0.82657766 70.4 0 1 0.482547,-1.108916 0.88279006,0.82657766 70.4 0 1 1.074819,0.554357 0.88279006,0.82657766 70.4 0 1 -0.482547,1.108917 z m 0.127424,-0.901827 a 0.42159293,0.38198874 5.4 0 0 -0.383776,-0.419971 0.42159293,0.38198874 5.4 0 0 -0.455678,0.340609 0.42159293,0.38198874 5.4 0 0 0.383775,0.41997 0.42159293,0.38198874 5.4 0 0 0.455679,-0.340608 z"
         id="path514"
         style="stroke-width:0.127755" />
      <path
         fill="#0c2641"
         d="m 38.557392,95.954081 a 0.83679809,0.86362674 7 0 1 -0.725318,-0.959162 0.83679809,0.86362674 7 0 1 0.93581,-0.755213 0.83679809,0.86362674 7 0 1 0.725318,0.959162 0.83679809,0.86362674 7 0 1 -0.93581,0.755213 z m 0.54083,-1.08495 a 0.3998745,0.43053582 73.4 0 0 -0.526825,-0.260199 0.3998745,0.43053582 73.4 0 0 -0.29835,0.506206 0.3998745,0.43053582 73.4 0 0 0.526825,0.260199 0.3998745,0.43053582 73.4 0 0 0.29835,-0.506206 z"
         id="path515"
         style="stroke-width:0.127755" />
      <ellipse
         fill="#fbcfba"
         cx="20.209633"
         cy="93.47699"
         transform="rotate(5.3999998)"
         rx="0.42159292"
         ry="0.38198876"
         id="ellipse515"
         style="stroke-width:0.127755" />
      <path
         fill="#e8eae9"
         d="m 28.299118,94.560323 0.03833,2.184616 q 0.0013,0.06643 -0.06515,0.06771 l -0.362826,0.0089 -0.376878,-0.06132 -1.208566,-0.04854 1.111472,-0.07027 a 0.10092679,0.10092679 0 0 0 0.09582,-0.102206 L 27.52111,94.67143 Z"
         id="path516"
         style="stroke-width:0.127755" />
      <ellipse
         fill="#e3c3a4"
         cx="9.9351721"
         cy="102.08514"
         transform="rotate(-16.6)"
         rx="0.43053579"
         ry="0.39987454"
         id="ellipse516"
         style="stroke-width:0.127755" />
      <path
         fill="#0c2641"
         d="m 5.9764107,97.75804 c 0.1392528,0.122645 0.3066124,0.238902 0.3462178,0.426704 0.137975,0.666882 -0.8840681,1.059092 -1.1114722,0.166081 Q 5.146,98.092759 5.039963,98.336776 c -0.1673596,0.384543 -0.4113716,0.746091 -0.8738473,0.39093 Q 3.6512629,98.331664 4.008977,97.861523 a 0.29000484,0.28361706 4.4 0 1 0.094538,-0.07921 q 0.048548,-0.02556 0.086873,-0.06515 0.072821,-0.07282 -0.03066,-0.0626 C 3.8965529,97.68012 3.6244342,97.687777 3.4902905,97.413102 3.3267621,97.077105 3.7087516,96.789657 4.0281407,96.82415 q 0.1034812,0.01021 0.074097,-0.08943 c -0.081761,-0.272118 -0.040881,-0.513577 0.2427367,-0.622167 0.4100936,-0.155864 0.5595699,0.24018 0.6988228,0.527629 a 0.04599196,0.04599196 0 0 0 0.083039,-0.0013 C 5.24565,96.380793 5.4347266,96.06396 5.7605054,96.102288 q 0.3870986,0.04599 0.3589919,0.540406 a 0.19163315,0.19163315 0 0 0 0.1392529,0.195463 c 0.2376249,0.06643 0.4522549,0.217186 0.4765278,0.484196 0.039605,0.435644 -0.457364,0.383265 -0.7333165,0.371766 q -0.1034812,-0.0038 -0.025559,0.06388 z"
         id="path517"
         style="stroke-width:0.127755" />
      <path
         fill="#0c2641"
         d="m 44.087134,96.678508 q -0.03705,-0.29256 0.16225,-0.449699 c 0.346218,-0.275953 0.696267,0.01916 0.789527,0.39093 q 0.06132,0.242736 0.123923,0 c 0.203132,-0.786974 1.329936,-0.597895 1.007991,0.194188 q -0.02811,0.06899 0.04599,0.07026 c 0.07921,0.0026 0.144362,-0.02426 0.221017,-0.0026 q 0.404984,0.11498 0.288726,0.581287 a 0.27978441,0.27978441 0 0 1 -0.258066,0.212075 l -0.530185,0.02556 q -0.07027,0.0026 -0.03449,0.0626 l 0.02556,0.04344 q 0.04599,0.07665 0.135421,0.08943 0.330888,0.04599 0.314278,0.334719 c -0.01405,0.264453 -0.26062,0.503356 -0.476528,0.636222 A 0.30278038,0.30405795 56.4 0 1 45.49501,98.78516 l -0.328332,-0.462476 q -0.04599,-0.06515 -0.09582,-0.0013 l -0.365382,0.458642 q -0.20824,0.264454 -0.471416,0.05366 -0.158416,-0.126477 -0.273396,-0.286171 -0.192913,-0.26701 0.0038,-0.531463 0.185245,-0.249124 0.399875,-0.313002 0.03833,-0.01151 0.03449,-0.0511 -0.0013,-0.01916 -0.01405,-0.03322 -0.01151,-0.01278 -0.02938,-0.01151 c -0.198022,0.02299 -0.375603,0.107315 -0.568513,0.05749 q -0.304057,-0.07793 -0.296392,-0.394764 0.01151,-0.448423 0.523796,-0.499525 0.08304,-0.0089 0.07282,-0.09198 z"
         id="path518"
         style="stroke-width:0.127755" />
      <path
         fill="#bfc9cb"
         d="m 26.137496,96.702781 -1.149799,0.07026 a 0.32066613,0.32449881 23.2 0 0 -0.191633,0.07793 q -0.139253,0.117535 -0.168637,0.296391 -0.05494,0.330888 0.27723,0.374325 l 1.350373,0.175024 c -0.569789,-0.03449 -1.14852,0.01789 -1.704256,0.01278 q -1.378482,-0.01151 -2.133518,0.09582 -1.172794,0.164803 -2.59471,0.655386 -0.191635,0.06515 -0.190357,-0.1367 v -0.499523 q 0,-0.180136 0.169915,-0.237624 2.220389,-0.752481 4.798494,-0.923674 0.889177,-0.06005 1.536898,0.0396 z"
         id="path519"
         style="stroke-width:0.127755" />
      <path
         fill="#748890"
         d="m 26.137496,96.702781 0.186524,0.0089 1.208566,0.04854 -0.807416,0.259345 q -0.06004,0.01916 -0.08432,0.07921 -0.120092,0.304057 0.249124,0.692433 l -0.634947,-0.09454 -1.350373,-0.175024 q -0.332166,-0.04344 -0.27723,-0.374325 0.02938,-0.178856 0.168637,-0.296391 a 0.32066613,0.32449881 23.2 0 1 0.191633,-0.07793 z"
         id="path520"
         style="stroke-width:0.127755" />
      <path
         fill="#0c2641"
         d="m 15.27062,98.330384 c 0.242734,0.208243 0.237625,0.5749 -0.11498,0.661773 -0.241459,0.06005 -0.49697,0.03322 -0.571069,-0.244012 -0.106037,-0.392211 0.212074,-0.484193 0.52252,-0.49058 q 0.0626,0 0.01151,-0.03705 -0.361548,-0.259344 -0.215908,-0.705209 0.154585,-0.47525 0.629835,-0.421593 0.05877,0.0064 0.106037,0.04088 l 0.406263,0.301503 a 0.29255995,0.28872727 16.1 0 1 0.118811,0.212074 c 0.03705,0.456086 -0.264454,0.751203 -0.716706,0.674548 q -0.08049,-0.01278 -0.160973,-0.02556 -0.06388,-0.0089 -0.01532,0.03322 z"
         id="path521"
         style="stroke-width:0.127755" />
      <ellipse
         fill="#0c2641"
         cx="76.38932"
         cy="-70.059929"
         transform="rotate(113.1)"
         rx="0.65666294"
         ry="0.59661788"
         id="ellipse521"
         style="stroke-width:0.127755" />
      <ellipse
         fill="#0c2641"
         cx="25.537508"
         cy="101.02943"
         transform="rotate(-6.0000003)"
         rx="0.48163798"
         ry="0.43947867"
         id="ellipse522"
         style="stroke-width:0.127755" />
      <circle
         fill="#0c2641"
         cx="14.17064"
         cy="97.861526"
         r="0.48419309"
         id="circle522"
         style="stroke-width:0.127755" />
      <path
         fill="#bfc9cb"
         d="m 27.205532,97.833417 0.784418,0.113702 q -0.09199,0 -0.145642,0.06515 -0.03577,0.04472 0.01405,0.0741 0.04727,0.02811 0.04088,0.09454 c -0.04472,0.398597 0.0077,0.815081 0.01151,1.108919 q 0.01532,1.166402 -0.01662,2.359642 l -0.399875,-0.0984 q 0.03322,-1.722146 0.03449,-3.441734 0,-0.150752 -0.08432,-0.201854 -0.0856,-0.04982 -0.238903,-0.0741 z"
         id="path522"
         style="stroke-width:0.127755" />
      <path
         fill="#ffffff"
         d="m 27.98995,97.947119 0.293838,0.05238 0.0077,3.790501 -0.397319,-0.14053 q 0.03194,-1.19324 0.01662,-2.35964 c -0.0038,-0.293838 -0.05621,-0.710322 -0.01151,-1.108919 q 0.0064,-0.06643 -0.04088,-0.09454 -0.04983,-0.02938 -0.01405,-0.0741 0.05366,-0.06515 0.145643,-0.06515 z"
         id="path523"
         style="stroke-width:0.127755" />
      <path
         fill="#a5b2b6"
         d="m 28.283788,97.999498 2.280434,0.70521 a 0.05365728,0.05493484 8.2 0 1 0.03833,0.05238 l -0.0026,3.991082 q 0,0.0626 -0.05621,0.0332 -1.076979,-0.57234 -2.252327,-0.99138 z"
         id="path524"
         style="stroke-width:0.127755" />
      <path
         fill="#0c2641"
         d="m 35.519854,98.513076 -0.0907,0.315555 q -0.0626,0.219739 -0.290008,0.240181 -0.503353,0.04471 -0.480358,-0.485471 0.0064,-0.166084 0.172468,-0.183967 l 0.545518,-0.05621 q 0.196742,-0.02045 0.143084,0.169916 z"
         id="path525"
         style="stroke-width:0.127755" />
      <path
         fill="#ffffff"
         d="m 40.706725,105.88712 -0.246568,-0.32706 a 0.13925342,0.13925342 0 0 1 0.05877,-0.21335 c 0.93517,-0.37943 1.651876,-0.77036 1.917607,-1.83073 0.283618,-1.13958 -0.212074,-2.23189 -1.011822,-3.03292 -0.313002,-0.313 -1.010544,-0.647716 -1.433417,-0.44458 q -0.884066,0.4267 -1.386144,1.39125 -0.387102,0.74226 -0.390933,1.61483 c -0.0038,1.00544 0.624724,1.81668 1.487072,2.31365 q 0.06643,0.0383 0.07665,0.1137 0.0064,0.0524 -0.01021,0.10732 -0.01916,0.0613 0.04088,0.0856 0.03577,0.0153 0.07793,0.0115 0.06516,-0.005 0.09326,0.0537 0.295113,0.6145 0.279783,0.89301 -0.06899,1.26861 -0.06004,2.51295 0.0064,1.12042 -0.0077,1.89589 -0.01662,0.94539 -0.01405,1.89461 0.0051,1.3721 -0.111146,2.75824 l -0.648996,-0.001 a 0.06771038,0.06771038 0 0 1 -0.06771,-0.0728 q 0.19291,-2.81701 0.371768,-5.61102 0.13031,-2.01981 0.106037,-4.00258 a 0.20824136,0.20824136 0 0 0 -0.127754,-0.1878 c -0.60684,-0.25295 -1.034819,-0.44203 -1.451303,-1.02843 q -0.697545,-0.98116 -0.572344,-2.18206 0.208241,-2.01343 1.751526,-3.016308 c 0.793361,-0.51613 1.49474,-0.343662 2.187173,0.205687 1.527955,1.212401 2.023647,3.418741 0.786974,5.015681 q -0.599173,0.7742 -1.610995,1.0016 -0.02938,0.008 -0.08432,0.0818 z"
         id="path526"
         style="stroke-width:0.127755" />
      <path
         fill="#fbcfba"
         d="m 9.9432159,115.70385 q 0.1047621,-0.0409 -0.024262,-0.10221 a 0.1763025,0.17758005 12.4 0 1 -0.09965,-0.15714 q -0.040881,-3.07507 0.00767,-6.28173 0.017886,-1.20474 -0.3245008,-2.863 a 0.17502494,0.1763025 13.3 0 0 -0.0626,-0.1022 q -0.1239203,-0.0984 -0.2427341,-0.0843 C 9.10771,106.01747 9.0361665,105.89353 8.9377944,105.8041 8.3054059,105.22537 7.7075111,104.78844 7.5107669,103.84561 q -0.5774509,-2.7621 1.7451409,-4.393533 c 0.228682,-0.160973 0.3858234,-0.209519 0.6566641,-0.08304 1.1612961,0.537851 1.8741711,1.771963 1.9367711,3.027803 0.04472,0.88918 0.01662,1.90228 -0.609394,2.55511 q -0.369212,0.38454 -0.756311,0.78186 c -0.157139,0.16097 -0.258067,0.313 -0.26062,0.55446 q -0.02045,1.9406 0.0396,2.65604 0.228682,2.68925 0.427982,5.38105 0.04727,0.65667 0.07027,1.31333 0.0026,0.0677 -0.06516,0.0677 z m -1.0718667,-11.7024 v -3.1249 a 0.05748995,0.05748995 0 0 0 -0.057491,-0.0575 h -0.035772 a 0.42031538,0.54934836 0 0 0 -0.4203144,0.54935 v 2.14118 a 0.42031538,0.54934836 0 0 0 0.4203144,0.54935 h 0.035772 a 0.05748995,0.05748995 0 0 0 0.057491,-0.0575 z m 0.9315661,-3.03537 A 0.16735962,0.16735962 0 0 0 9.634688,100.7996 l -0.122645,5.3e-4 a 0.16735962,0.16735962 0 0 0 -0.1664785,0.16823 l 0.01487,2.83869 a 0.16735962,0.16735962 0 0 0 0.1682274,0.16648 l 0.1226449,-5.3e-4 a 0.16735962,0.16735962 0 0 0 0.1664785,-0.16823 z m 0.7254217,-0.0972 q -0.02683,-0.0115 -0.05749,-0.0179 -0.226129,-0.0486 -0.224851,0.18397 l 0.02172,2.67647 q 0.0013,0.24018 0.237625,0.28745 l 0.04727,0.009 a 0.17246984,0.17246984 0 0 0 0.206965,-0.16609 q 0.02045,-1.01565 0.03322,-2.49761 a 0.44586646,0.54551571 10.2 0 0 -0.264454,-0.47525 z"
         id="path527"
         style="stroke-width:0.127755" />
      <path
         fill="#fbcfba"
         d="m 40.706725,105.88712 q 0.04471,0.0588 0.04471,0.15075 -0.0051,2.29832 0.0511,3.59504 c 0.06771,1.57905 0.146918,3.91187 0.293836,5.97384 q 0.0051,0.0664 -0.06005,0.0664 l -0.969663,0.0115 q 0.116258,-1.38615 0.111146,-2.75824 -0.0026,-0.94923 0.01405,-1.89462 0.01405,-0.77547 0.0077,-1.89589 -0.0089,-1.24433 0.06004,-2.51295 0.01532,-0.2785 -0.279784,-0.89301 -0.02811,-0.0588 -0.09326,-0.0537 -0.04216,0.004 -0.07793,-0.0115 -0.06005,-0.0243 -0.04088,-0.0856 0.01662,-0.0549 0.01021,-0.10731 -0.01021,-0.0754 -0.07666,-0.11371 c -0.862348,-0.49697 -1.490906,-1.30821 -1.487072,-2.31365 q 0.0038,-0.87257 0.390932,-1.61483 0.502079,-0.96455 1.386145,-1.39125 c 0.422873,-0.203133 1.120415,0.13159 1.433417,0.44459 0.799748,0.80102 1.295439,1.89333 1.011822,3.03291 -0.265732,1.06037 -0.982438,1.4513 -1.917607,1.83074 a 0.13925342,0.13925342 0 0 0 -0.05877,0.21335 z"
         id="path528"
         style="stroke-width:0.127755" />
      <path
         fill="#e8eae9"
         d="m 13.086,113.75302 c 0.544238,0.43309 1.289053,0.34494 1.936774,0.33472 q 0.06388,-10e-4 0.09582,0.0549 0.439478,0.77931 0.921115,1.48835 a 0.03832663,0.03704908 72.8 0 1 -0.03066,0.0588 l -3.964252,-0.004 q -0.06643,0 -0.07282,-0.0652 -0.0396,-0.41776 -0.08048,-0.83041 -0.362826,-3.66275 -0.683493,-6.70844 -0.06388,-0.61961 -0.03194,-1.22261 a 0.17119228,0.17374739 71.4 0 1 0.0626,-0.12393 c 0.684768,-0.55573 1.347819,-1.24561 1.685094,-2.07858 q 0.02556,-0.0613 0.0907,-0.0562 0.539128,0.0434 0.781865,-0.30023 c 0.499523,-0.70648 0.930058,-1.36059 1.480685,-1.93294 q 1.264777,-1.31588 2.792732,-2.30981 a 0.03066131,0.03193886 73.1 0 1 0.04855,0.0256 q -0.0051,1.75535 -0.0026,3.49666 c 0,0.13798 0.03833,0.23379 0.09198,0.35644 a 0.28872727,0.28744973 53.1 0 1 -0.04216,0.30022 q -0.988828,1.18046 -1.533065,2.50018 -0.02556,0.06 -0.06771,0.0102 -0.576178,-0.66688 -1.469189,-0.59662 -0.923671,0.0741 -2.047918,0.61195 c -0.346217,0.16481 -0.536575,0.43181 -0.332165,0.80231 q 0.761423,1.37337 2.153957,1.9406 0.32961,0.13414 0.876403,0.0958 0.181411,-0.0128 0.178855,0.16991 l -0.01278,0.9901 q -0.0026,0.17759 -0.176302,0.14181 c -0.24529,-0.0498 -0.766533,-0.0422 -1.029708,0.0422 -0.399876,0.12904 -0.482918,0.70394 -0.374325,1.03866 q 0.07026,0.2159 0.189079,0.41775 a 0.08176348,0.08176348 0 0 1 -0.07282,0.12265 c -0.443312,-0.0192 -0.903232,-0.24146 -1.310772,0.0524 -0.389652,0.28106 -0.434367,0.87257 -0.0511,1.17663 z m 3.579707,-9.73752 a 0.481638,0.481638 0 0 0 -0.481637,-0.48164 0.481638,0.481638 0 0 0 -0.481637,0.48164 0.481638,0.481638 0 0 0 0.481637,0.48164 0.481638,0.481638 0 0 0 0.481637,-0.48164 z"
         id="path529"
         style="stroke-width:0.127755" />
      <path
         fill="#e8eae9"
         d="m 37.323762,106.91683 c -1.002879,-0.672 -2.891105,-1.35804 -3.886322,-0.23379 a 0.04215929,0.04215929 0 0 1 -0.07154,-0.0141 q -0.518686,-1.44619 -1.594387,-2.527 -0.04472,-0.0447 0.0026,-0.0869 0.126479,-0.11626 0.127754,-0.19419 0.03066,-1.88183 -0.0077,-3.61675 -0.0013,-0.0971 0.0856,-0.0524 0.974773,0.50719 1.797518,1.28522 1.404033,1.3261 2.259994,2.71608 c 0.218461,0.3526 0.608116,0.26573 0.794639,0.58256 0.462473,0.78953 1.161296,1.34782 1.851176,1.90994 a 0.26445375,0.26317619 20 0 1 0.09709,0.20697 q -0.0064,0.91601 -0.09582,2.0773 -0.260622,3.33186 -0.592786,6.6369 -0.0077,0.0728 -0.08049,0.0728 l -3.960418,-0.009 q -0.0741,0 -0.03449,-0.0639 l 0.907063,-1.41937 a 0.10986967,0.10986967 0 0 1 0.08687,-0.0498 c 0.480361,-0.0153 1.364427,0.0907 1.732364,-0.13925 0.591508,-0.3705 0.788249,-1.41042 -0.149474,-1.51646 q -0.443312,-0.0498 -0.992661,-0.008 a 0.06771038,0.06771038 0 0 1 -0.06515,-0.0996 c 0.203131,-0.36666 0.51613,-1.15491 0.02426,-1.40915 q -0.153308,-0.0779 -0.592786,-0.0741 -0.435647,0.005 -0.878956,-0.006 -0.05749,-10e-4 -0.05494,-0.0588 l 0.06643,-1.20728 q 0.0038,-0.0677 0.07154,-0.0613 0.763979,0.0677 1.303108,-0.22229 1.168961,-0.63111 1.883113,-1.78602 0.146918,-0.23891 0.05749,-0.5123 -0.02556,-0.0754 -0.09071,-0.12009 z m -3.31588,-2.42955 a 0.51996461,0.458642 63.2 0 0 0.174935,-0.67091 0.51996461,0.458642 63.2 0 0 -0.643822,-0.25731 0.51996461,0.458642 63.2 0 0 -0.174937,0.6709 0.51996461,0.458642 63.2 0 0 0.643824,0.25732 z"
         id="path530"
         style="stroke-width:0.127755" />
      <path
         fill="#0c2641"
         d="m 8.8713492,104.00145 a 0.05748995,0.05748995 0 0 1 -0.057491,0.0575 H 8.7780862 A 0.42031538,0.54934836 0 0 1 8.3577718,103.5096 v -2.14118 a 0.42031538,0.54934836 0 0 1 0.4203144,-0.54935 h 0.035772 a 0.05748995,0.05748995 0 0 1 0.057491,0.0575 z"
         id="path531"
         style="stroke-width:0.127755" />
      <rect
         fill="#0c2641"
         x="8.8167686"
         y="100.84866"
         transform="rotate(-0.30000028)"
         width="0.45736444"
         height="3.173445"
         rx="0.16735962"
         id="rect531"
         style="stroke-width:0.127755" />
      <path
         fill="#0c2641"
         d="m 10.528337,100.86889 a 0.44586646,0.54551571 10.2 0 1 0.264453,0.47525 q -0.01278,1.48196 -0.03322,2.49761 a 0.17246984,0.17246984 0 0 1 -0.206965,0.16609 l -0.04727,-0.009 q -0.23635,-0.0473 -0.237625,-0.28745 l -0.02172,-2.67647 q -0.0013,-0.23252 0.22485,-0.18397 0.03066,0.006 0.05749,0.0179 z"
         id="path532"
         style="stroke-width:0.127755" />
      <path
         fill="#ffffff"
         d="m 26.776272,102.77627 q 0.02426,0.0409 0.02683,0.0434 a 0.06260016,0.06260016 0 0 1 -0.04727,0.10476 q -0.198022,0 -0.394766,0 -0.195464,0 -0.388377,-0.0486 -0.335994,-0.0843 -0.687324,-0.0498 -1.061646,0.10476 -1.922719,0.26317 -0.477806,0.0894 -1.352928,0.45737 c -1.754082,0.73842 -3.227105,2.49123 -3.924647,4.19804 q -0.2619,0.63878 -0.397319,1.3261 -0.15203,0.77292 -0.215908,1.40659 -0.02426,0.2389 0.260622,0.22357 a 0.07154304,0.0728206 18.6 0 1 0.05877,0.11882 q -0.07793,0.092 -0.213352,0.0945 l -0.355161,0.0869 a 0.06132261,0.06132261 0 0 1 -0.07538,-0.0549 c -0.09582,-1.34015 0.09837,-2.69947 0.766533,-3.94892 1.147244,-2.14373 2.937097,-3.81605 5.374671,-4.22359 q 1.867784,-0.313 3.487722,0.003 z"
         id="path533"
         style="stroke-width:0.127755" />
      <path
         fill="#fbcfba"
         d="m 26.776272,102.77627 q 2.226778,0.48036 3.837773,2.07603 -0.08815,0.1137 -0.187798,-0.003 a 0.1034819,0.1034819 0 0 0 -0.181415,0.0562 q -0.0013,0.0128 -0.0077,0.0307 -0.0077,0.0179 -0.02299,0.0281 l -0.471418,0.2964 a 0.12903299,0.1315881 79.7 0 0 -0.05877,0.083 l -0.117536,0.52507 q -0.01278,0.0575 -0.07154,0.0575 h -0.06643 q -0.0856,0 -0.02683,0.0626 c 0.999049,1.06932 1.649323,2.49762 1.604608,3.97831 q -0.01405,0.47397 -0.02426,0.95816 l -3.513275,-0.0205 q -0.122645,-10e-4 -0.01789,-0.0651 c 0.442034,-0.2734 0.07665,-0.88152 -0.388376,-0.75504 -0.3756,0.10093 -0.439479,0.51486 -0.169916,0.77292 q 0.04599,0.0447 -0.01916,0.0447 l -7.241177,0.008 q 0.129035,0.023 0.09199,-0.24529 -0.02045,-0.14436 -0.0051,-0.24785 0.122645,-0.83296 0.338553,-1.4743 c 0.636223,-1.89333 2.122017,-3.22454 4.077954,-3.75217 1.135746,-0.30662 2.497619,-0.37688 3.630809,0.0486 q 0.399875,0.15075 0.807415,0.30278 a 0.07665326,0.07409815 25.7 0 0 0.0907,-0.0307 q 0.03833,-0.06 -0.02043,-0.0996 -1.116584,-0.76015 -2.274049,-1.09487 c -1.033539,-0.29895 -2.339199,-0.27467 -3.36252,0.14692 q -1.793688,0.7397 -2.745465,2.03003 -0.93517,1.26734 -1.12808,2.99204 -0.03705,0.33088 -0.05749,1.42702 l -1.498571,10e-4 q 0.135422,-0.003 0.213353,-0.0945 a 0.07154304,0.0728206 18.6 0 0 -0.05877,-0.11881 q -0.284895,0.0153 -0.260623,-0.22358 0.06388,-0.63366 0.215908,-1.40658 0.135419,-0.68733 0.39732,-1.32611 c 0.697542,-1.70681 2.170565,-3.45961 3.924646,-4.19804 q 0.875123,-0.36793 1.352929,-0.45736 0.861073,-0.15842 1.922719,-0.26318 0.351329,-0.0345 0.687324,0.0498 0.192913,0.0485 0.388376,0.0485 0.196745,0 0.394767,0 a 0.06260016,0.06260016 0 0 0 0.04727,-0.10476 q -0.0026,-0.003 -0.02683,-0.0434 z m 1.86523,4.35902 a 0.50207886,0.50207886 0 0 0 -0.502078,-0.50208 0.50207886,0.50207886 0 0 0 -0.502079,0.50208 0.50207886,0.50207886 0 0 0 0.502079,0.50208 0.50207886,0.50207886 0 0 0 0.502078,-0.50208 z m -3.670413,0.4267 a 0.48036043,0.48036043 0 0 0 -0.480362,-0.48036 0.48036043,0.48036043 0 0 0 -0.480359,0.48036 0.48036043,0.48036043 0 0 0 0.480359,0.48036 0.48036043,0.48036043 0 0 0 0.480362,-0.48036 z m 4.536072,2.11384 a 0.46886243,0.49058086 38 0 0 0.671494,-0.0979 0.46886243,0.49058086 38 0 0 -0.06744,-0.67525 0.46886243,0.49058086 38 0 0 -0.671494,0.0979 0.46886243,0.49058086 38 0 0 0.06744,0.67525 z m -6.437074,0.52814 a 0.47525021,0.47525021 0 0 0 -0.47525,-0.47525 0.47525021,0.47525021 0 0 0 -0.47525,0.47525 0.47525021,0.47525021 0 0 0 0.47525,0.47526 0.47525021,0.47525021 0 0 0 0.47525,-0.47526 z"
         id="path534"
         style="stroke-width:0.127755" />
      <ellipse
         fill="#0c2641"
         cx="108.07729"
         cy="16.756012"
         transform="rotate(63.2)"
         rx="0.51996464"
         ry="0.45864198"
         id="ellipse535"
         style="stroke-width:0.127755" />
      <circle
         fill="#0c2641"
         cx="16.184074"
         cy="104.0155"
         r="0.48163801"
         id="circle535"
         style="stroke-width:0.127755" />
      <path
         fill="#0c2641"
         d="m 4.8444967,112.29278 1.2877747,1.4628 a 0.11625744,0.11625744 0 0 1 0.00511,0.14819 l -0.32961,0.42926 a 0.24529043,0.24529043 0 0 1 -0.3257762,0.0575 c -0.586396,-0.3756 -1.0705914,-1.09231 -1.4832409,-1.64932 q -0.031938,-0.0447 -0.086873,-0.0447 -1.5087917,-0.009 -2.4362965,-1.00543 -1.3835909,-1.4858 -1.41169759,-3.60909 c -0.01661583,-1.28778 0.27850835,-2.99331 1.07570059,-4.04729 a 0.21590668,0.21846179 21.2 0 1 0.191635,-0.0856 c 0.588952,0.0511 1.6173821,1.13319 2.0185354,1.55862 q 1.0744226,1.14213 1.6518784,2.4018 c 0.5915051,1.2916 0.6796563,3.04058 -0.1648063,4.24403 q -0.051102,0.0728 0.00767,0.13926 z m -3.5311582,-5.64552 q -0.41137416,1.36827 0.1750245,2.64837 0.020426,0.0447 0.068987,0.0498 0.4956916,0.0613 0.9888273,0.20568 0.04727,0.014 0.017886,-0.0256 C 2.1999599,109.0299 1.7464297,108.16882 1.8384121,107.52366 a 0.24145777,0.24145777 0 0 1 0.3193891,-0.19291 q 0.11498,0.0396 0.1903545,0.16352 0.3909324,0.65156 0.786974,1.38487 0.035772,0.0652 -0.00384,0.12776 -0.035772,0.0562 -0.024289,0.12009 0.022992,0.13414 0.091985,0.0166 l 0.2095182,-0.36027 0.3015033,-0.6375 q 0.028107,-0.0601 -0.00384,-0.11882 l -0.1750245,-0.31939 -0.080486,-0.25678 Q 2.7914394,106.28953 1.7745054,105.477 a 0.07154304,0.07154304 0 0 0 -0.113702,0.0345 z m 3.1351167,3.6142 a 0.07537571,0.07537571 0 0 0 0.00132,-0.0307 l -0.1878013,-1.09869 a 0.07537571,0.07537571 0 0 0 -0.1418087,-0.0192 l -0.5008007,1.05526 a 0.07537571,0.07537571 0 0 0 0.00384,0.0715 l 0.4905798,0.80231 a 0.07537571,0.07537571 0 0 0 0.1366996,-0.0192 z M 3.321653,111.35505 Q 3.1185218,110.9424 2.8310731,110.53231 a 0.12009011,0.117535 76.4 0 0 -0.079208,-0.0498 L 1.847355,110.33939 a 0.05365728,0.05237973 84.4 0 0 -0.057489,0.0703 c 0.2095183,0.59917 0.8815123,1.01438 1.4679083,1.17407 q 0.1379776,0.0383 0.11498,-0.10092 -0.00511,-0.0345 -0.051102,-0.12776 z"
         id="path536"
         style="stroke-width:0.127755" />
      <path
         fill="#0c2641"
         d="m 50.054591,108.82038 q -0.236347,1.38487 -0.802304,2.22934 c -0.605562,0.90323 -1.886947,1.83329 -3.011196,1.69276 a 0.117535,0.117535 0 0 0 -0.102203,0.0383 l -1.567561,1.72214 a 0.07920837,0.07793082 46.2 0 1 -0.117534,-0.003 l -0.449699,-0.53402 q -0.149473,-0.15458 0.0064,-0.33088 0.645165,-0.73204 1.309491,-1.45386 0.04472,-0.0485 0.0051,-0.10093 -0.608116,-0.80358 -0.683493,-1.82562 c -0.171191,-2.33793 1.55734,-4.33091 3.198998,-5.76177 q 0.347493,-0.30278 0.734594,-0.51486 a 0.26445375,0.26189864 54 0 1 0.319387,0.0524 c 0.215908,0.23252 0.327054,0.50336 0.467585,0.78953 q 0.926226,1.89206 0.692435,4.00002 z M 46.37779,108.0283 q -0.0051,0.44714 0.39732,1.01055 a 0.07793082,0.07793082 0 0 0 0.131588,-0.008 q 0.396041,-0.70265 0.765254,-1.41042 0.11498,-0.21846 0.281062,-0.3411 a 0.17119228,0.17119228 0 0 1 0.268287,0.0984 q 0.120089,0.50974 0.02172,0.8879 -0.01788,0.0703 -0.06899,0.12137 -0.219739,0.22357 -0.342384,0.50719 c -0.103481,0.23762 -0.1993,0.38965 -0.324498,0.58128 a 0.04343685,0.04343685 0 0 0 0.04216,0.0664 c 0.295114,-0.0409 1.189403,-0.18141 1.292884,-0.49952 q 0.52763,-1.60333 -0.247846,-3.15811 -0.06771,-0.2108 -0.20824,-0.32706 -0.04982,-0.0422 -0.102203,-0.003 -0.268288,0.20313 -0.362826,0.33089 -0.424148,0.57617 -0.946668,1.0642 -0.281062,0.2619 -0.596617,1.07825 z m -0.385823,3.10701 0.468863,-0.97733 a 0.07793082,0.07793082 0 0 0 -0.0026,-0.0728 l -0.534016,-0.97988 q -0.01916,-0.0345 -0.03449,0.003 -0.406263,0.96072 0.02045,2.02365 0.03705,0.0958 0.08176,0.004 z m 2.428632,-0.85085 q -0.578731,0.17375 -1.088478,0.1993 a 0.07154304,0.0728206 15.2 0 0 -0.05877,0.0345 q -0.647721,0.985 -0.660496,1.05782 a 0.00638777,0.00638777 0 0 0 0.0077,0.008 q 0.792083,-0.0345 1.372095,-0.64516 0.264454,-0.27851 0.476528,-0.58896 a 0.04343685,0.04343685 0 0 0 -0.04855,-0.0652 z"
         id="path537"
         style="stroke-width:0.127755" />
      <path
         fill="#ffffff"
         d="m 19.632189,110.91046 -0.555736,0.003 q 0.02045,-1.09615 0.05749,-1.42703 0.19291,-1.7247 1.12808,-2.99203 0.951778,-1.29033 2.745465,-2.03004 c 1.023321,-0.42159 2.328981,-0.44586 3.362521,-0.14692 q 1.157464,0.33472 2.274048,1.09487 0.05877,0.0396 0.02043,0.0997 a 0.07665326,0.07409815 25.7 0 1 -0.0907,0.0307 q -0.407541,-0.15203 -0.807416,-0.30278 c -1.133189,-0.42543 -2.495063,-0.35516 -3.630808,-0.0486 -1.955938,0.52763 -3.441732,1.85884 -4.077954,3.75218 q -0.215908,0.64133 -0.338553,1.4743 -0.01532,0.10348 0.0051,0.24784 0.03705,0.26829 -0.09199,0.24529 z"
         id="path538"
         style="stroke-width:0.127755" />
      <path
         fill="#d5a690"
         d="m 30.614045,104.8523 c 1.692762,1.62122 2.385195,3.77517 2.263828,6.04411 q -0.0026,0.0383 -0.03961,0.0383 l -1.856285,-0.009 q 0.01021,-0.48419 0.02426,-0.95816 c 0.04472,-1.48069 -0.60556,-2.90899 -1.604608,-3.97831 q -0.05877,-0.0626 0.02683,-0.0626 h 0.06643 q 0.05877,0 0.07154,-0.0575 l 0.117536,-0.52507 a 0.12903299,0.1315881 79.7 0 1 0.05877,-0.083 l 0.471419,-0.2964 q 0.01532,-0.0102 0.02299,-0.0281 0.0064,-0.0179 0.0077,-0.0307 a 0.1034819,0.1034819 0 0 1 0.181414,-0.0562 q 0.09965,0.11626 0.187799,0.003 z"
         id="path539"
         style="stroke-width:0.127755" />
      <path
         fill="#e8eae9"
         d="m 3.450685,107.45085 q -0.1929104,0.0447 -0.2912825,-0.17886 -0.09326,-0.21208 -0.1405308,-0.27595 c -0.2644536,-0.36283 -0.4075403,-0.5979 -0.8930084,-0.79209 -0.3308879,-0.13159 -0.5991754,0.0971 -0.6809369,0.39349 q -0.017886,0.0613 -0.081764,0.0626 -0.025559,0 -0.049824,-0.0128 l 0.3474932,-1.13575 a 0.07154304,0.07154304 0 0 1 0.113702,-0.0345 q 1.016934,0.81252 1.6761513,1.97382 z"
         id="path540"
         style="stroke-width:0.127755" />
      <path
         fill="#ffffff"
         d="m 48.594345,105.88456 q -0.05877,0.12009 -0.143084,0.008 a 0.18524538,0.18524538 0 0 0 -0.290007,-0.006 l -1.783464,2.14246 q 0.315556,-0.81636 0.596617,-1.07826 0.522521,-0.48802 0.946669,-1.0642 0.09454,-0.12776 0.362826,-0.33089 0.05238,-0.0396 0.102203,0.003 0.140531,0.11626 0.20824,0.32705 z"
         id="path541"
         style="stroke-width:0.127755" />
      <path
         fill="#9fcea1"
         d="m 48.594345,105.88456 q 0.775475,1.55479 0.247846,3.15812 c -0.103481,0.31811 -0.99777,0.45864 -1.292884,0.49952 a 0.04343685,0.04343685 0 0 1 -0.04216,-0.0664 c 0.125199,-0.19163 0.221017,-0.34366 0.324499,-0.58129 q 0.122645,-0.28362 0.342384,-0.50719 0.0511,-0.0511 0.06899,-0.12137 0.09837,-0.37815 -0.02172,-0.8879 a 0.17119228,0.17119228 0 0 0 -0.268288,-0.0984 q -0.166081,0.12265 -0.281061,0.34111 -0.369213,0.70776 -0.765255,1.41042 a 0.07793082,0.07793082 0 0 1 -0.131587,0.008 q -0.402432,-0.5634 -0.39732,-1.01055 l 1.783464,-2.14245 a 0.18524538,0.18524538 0 0 1 0.290007,0.006 q 0.08432,0.11243 0.143084,-0.008 z"
         id="path542"
         style="stroke-width:0.127755" />
      <path
         fill="#ffffff"
         d="m 9.9432159,115.70385 -0.7243709,10e-4 q -0.066434,0.001 -0.067712,-0.0664 c -0.016616,-1.75024 0.072821,-3.52093 0.1737466,-5.74771 0.044715,-1.01821 0.039606,-2.01598 0.038327,-3.02269 q -0.00132,-0.38966 -0.1660816,-0.75504 0.1188138,-0.0141 0.2427341,0.0843 a 0.17502494,0.1763025 13.3 0 1 0.0626,0.1022 q 0.3423867,1.65827 0.3245009,2.863 -0.048548,3.20666 -0.00767,6.28174 a 0.1763025,0.17758005 12.4 0 0 0.09965,0.15714 q 0.129034,0.0613 0.024262,0.1022 z"
         id="path543"
         style="stroke-width:0.127755" />
      <path
         fill="#9fcea1"
         d="m 3.450685,107.45085 0.080486,0.25678 q -0.014049,0.0294 -0.0626,0.0588 -0.054933,0.0332 -0.084317,0.0894 -0.2785084,0.53785 0.024262,0.92751 l -0.2095183,0.36027 q -0.068987,0.11753 -0.091985,-0.0166 -0.011509,-0.0639 0.024289,-0.12009 0.039603,-0.0626 0.00384,-0.12776 -0.3960416,-0.73331 -0.786974,-1.38487 -0.075375,-0.12392 -0.1903545,-0.16352 A 0.24145777,0.24145777 0 0 0 1.83842,107.52366 c -0.091982,0.64516 0.3615478,1.50624 0.7256515,2.00192 q 0.029385,0.0396 -0.017886,0.0256 -0.4931357,-0.14436 -0.9888273,-0.20568 -0.048548,-0.005 -0.068987,-0.0498 -0.58639872,-1.2801 -0.1750246,-2.64837 0.024262,0.0128 0.049824,0.0128 0.063878,-10e-4 0.081764,-0.0626 c 0.081762,-0.29639 0.350049,-0.52507 0.680937,-0.39348 0.485468,0.19419 0.6285547,0.42925 0.8930084,0.79208 q 0.04727,0.0639 0.1405308,0.27595 0.098372,0.22357 0.2912824,0.17886 z"
         id="path544"
         style="stroke-width:0.127755" />
      <circle
         fill="#0c2641"
         cx="28.139425"
         cy="107.13528"
         r="0.50207889"
         id="circle544"
         style="stroke-width:0.127755" />
      <circle
         fill="#0c2641"
         cx="24.49073"
         cy="107.56199"
         r="0.48036045"
         id="circle545"
         style="stroke-width:0.127755" />
      <path
         fill="#d5dddf"
         d="m 36.037265,107.49811 q -0.797195,-0.20441 -1.50496,-0.0728 -0.175025,0.0319 -0.235069,0.29129 -0.09837,0.0498 -0.116258,0.0115 0.152029,-0.52124 0.508465,-0.60172 0.62728,-0.14181 1.378482,0.2619 0.05238,0.0281 0.03066,0.083 -0.01405,0.0345 -0.06132,0.0268 z"
         id="path545"
         style="stroke-width:0.127755" />
      <path
         fill="#e8eae9"
         d="m 15.399652,107.29882 q -0.05366,0.0881 -0.07154,0.16991 -0.01151,0.0575 -0.07027,0.0652 l -1.125524,0.13031 q -0.07921,-0.0958 -0.09199,-0.20697 -0.0077,-0.0664 0.05494,-0.0894 0.600451,-0.22612 1.304383,-0.069 z"
         id="path546"
         style="stroke-width:0.127755" />
      <path
         fill="#9fcea1"
         d="m 15.399652,107.29882 q 0.430535,0.36921 0.646443,1.03737 0.05621,0.17502 -0.126479,0.15969 -0.995214,-0.083 -1.787297,-0.83168 l 1.125524,-0.13031 q 0.05877,-0.008 0.07027,-0.0652 0.01789,-0.0818 0.07154,-0.16991 z"
         id="path547"
         style="stroke-width:0.127755" />
      <path
         fill="#a5b2b6"
         d="m 36.037265,107.49811 q -0.111148,0.20058 -0.268287,0.28234 l -1.471742,-0.0639 q 0.06004,-0.25935 0.235069,-0.29129 0.707765,-0.13159 1.50496,0.0728 z"
         id="path548"
         style="stroke-width:0.127755" />
      <path
         fill="#92a1a7"
         d="m 3.5311712,107.70763 0.1750245,0.31939 q 0.031941,0.0588 0.00384,0.11882 l -0.3015033,0.6375 q -0.3027812,-0.38966 -0.024262,-0.92751 0.029385,-0.0562 0.084317,-0.0894 0.048548,-0.0294 0.062601,-0.0588 z"
         id="path549"
         style="stroke-width:0.127755" />
      <path
         fill="#92a1a7"
         d="m 34.297236,107.71658 1.471742,0.0639 q -0.620893,0.62728 -1.650601,0.81125 -0.150751,0.0268 -0.162247,-0.1252 -0.03066,-0.36538 0.224848,-0.73843 0.01789,0.0383 0.116258,-0.0115 z"
         id="path550"
         style="stroke-width:0.127755" />
      <ellipse
         fill="#0c2641"
         cx="67.768723"
         cy="-90.775139"
         transform="rotate(128)"
         rx="0.49058086"
         ry="0.46886247"
         id="ellipse550"
         style="stroke-width:0.127755" />
      <path
         fill="#9fcea1"
         d="m 4.4484552,110.26146 -0.1980195,0.76143 a 0.07537571,0.07537571 0 0 1 -0.1366996,0.0191 l -0.4905798,-0.8023 a 0.07537571,0.07537571 0 0 1 -0.00384,-0.0715 l 0.5008007,-1.05526 a 0.07537571,0.07537571 0 0 1 0.1418087,0.0192 l 0.1878013,1.0987 a 0.07537571,0.07537571 0 0 1 -0.00132,0.0307 z"
         id="path551"
         style="stroke-width:0.127755" />
      <path
         fill="#9fcea1"
         d="m 46.46083,110.15798 -0.468863,0.97733 q -0.04472,0.092 -0.08176,-0.004 -0.426705,-1.06293 -0.02045,-2.02365 0.01532,-0.0371 0.03449,-0.003 l 0.534016,0.97988 a 0.07793082,0.07793082 0 0 1 0.0026,0.0728 z"
         id="path552"
         style="stroke-width:0.127755" />
      <circle
         fill="#0c2641"
         cx="22.594835"
         cy="110.20397"
         r="0.47525024"
         id="circle552"
         style="stroke-width:0.127755" />
      <path
         fill="#9fcea1"
         d="m 48.420599,110.28446 a 0.04343685,0.04343685 0 0 1 0.04855,0.0652 q -0.212074,0.31044 -0.476528,0.58895 -0.580011,0.61067 -1.372095,0.64516 a 0.00638777,0.00638777 0 0 1 -0.0077,-0.008 q 0.01278,-0.0728 0.660495,-1.05781 a 0.07154304,0.0728206 15.2 0 1 0.05877,-0.0345 q 0.509747,-0.0256 1.088478,-0.1993 z"
         id="path553"
         style="stroke-width:0.127755" />
      <path
         fill="#9fcea1"
         d="m 3.321653,111.35505 q 0.045993,0.0933 0.051102,0.12776 0.022992,0.13925 -0.11498,0.10092 c -0.586396,-0.15969 -1.25839,-0.5749 -1.4679083,-1.17407 a 0.05365728,0.05237973 84.4 0 1 0.057489,-0.0703 l 0.9045098,0.14309 a 0.12009011,0.117535 76.4 0 1 0.079208,0.0498 q 0.2874487,0.41009 0.4905799,0.82274 z"
         id="path554"
         style="stroke-width:0.127755" />
      <path
         fill="#ffffff"
         d="m 32.365574,112.17907 q -0.191633,0.30151 -0.290005,0.62217 c -0.03577,0.12009 -0.104759,0.17247 -0.223573,0.18397 q -2.077302,0.0562 -4.154606,0.0434 -1.33249,-0.008 -2.555108,-0.001 -3.817334,0.0205 -7.634666,0.0332 -0.175024,0 -0.311724,0.0243 -0.238903,0.0434 -0.08304,0.22741 0.379433,0.44714 0.723095,0.91856 0.333441,0.45609 0.615781,0.74354 0.321942,0.32833 0.688602,0.68349 l -1.259668,-0.005 q -0.141809,-0.001 -0.224851,-0.11626 c -0.724374,-1.0131 -1.507514,-2.05303 -1.838399,-3.24626 a 0.07026549,0.07154304 82.1 0 1 0.06899,-0.0894 z"
         id="path555"
         style="stroke-width:0.127755" />
      <path
         fill="#d5dddf"
         d="m 32.365574,112.17907 1.898446,0.003 q 0.07793,0.001 0.0511,0.0741 l -0.287452,0.76909 -2.021088,-0.009 q -0.04599,-0.046 -0.154586,-0.0307 c 0.118814,-0.0115 0.187801,-0.0639 0.223573,-0.18397 q 0.09837,-0.32066 0.290005,-0.62216 z"
         id="path556"
         style="stroke-width:0.127755" />
      <path
         fill="#fbcfba"
         d="m 31.851996,112.98521 q 0.108593,-0.0153 0.154586,0.0307 -0.477806,0.87385 -0.907066,1.37465 -0.519964,0.60556 -1.09614,1.28778 l -10.863045,-0.0205 q -0.36666,-0.35516 -0.688602,-0.68349 -0.28234,-0.28745 -0.615781,-0.74353 -0.343662,-0.47142 -0.723095,-0.91857 -0.155864,-0.18396 0.08304,-0.2274 0.1367,-0.0243 0.311724,-0.0243 3.817332,-0.0128 7.634666,-0.0332 1.222618,-0.006 2.555108,0.001 2.077304,0.0128 4.154606,-0.0434 z"
         id="path557"
         style="stroke-width:0.127755" />
      <path
         fill="#a5b2b6"
         d="m 32.006582,113.01587 2.021088,0.009 q -0.634944,1.45769 -1.669761,2.61004 a 0.09326147,0.0894288 19.7 0 1 -0.06899,0.0307 l -2.285545,0.0128 q 0.576176,-0.68222 1.09614,-1.28778 0.42926,-0.5008 0.907066,-1.37465 z"
         id="path558"
         style="stroke-width:0.127755" />
      <path
         fill="#9fcea1"
         d="m 2.8412914,115.46878 q -0.2848928,0.17885 0.088151,0.48547 0.2082429,0.16863 0.7013786,0.44331 0.045993,0.0256 0.072821,-0.0204 l 0.016616,-0.0294 q 0.00511,-0.009 -0.00384,-0.0153 l -0.3883766,-0.2619 q -0.081761,-0.0537 0.0064,-0.0971 0.2222924,-0.1086 0.1916324,-0.18142 0.5940611,0.30917 0.8419068,0.91728 0.030663,0.0754 0.00384,0.15203 -0.068987,0.1993 -0.2976695,0.26701 -0.066434,0.0192 -0.1303126,-0.009 -0.2759498,-0.12264 -0.5774531,-0.26062 -0.3053344,-0.13925 -0.4841928,-0.37049 -0.3896545,-0.50464 -0.6004507,-1.08081 a 0.06771038,0.06771038 0 0 1 0.083039,-0.0882 z"
         id="path559"
         style="stroke-width:0.127755" />
      <path
         fill="#e8eae9"
         d="m 47.5212,116.07689 q -0.108592,-0.0179 -0.226126,-0.0856 a 0.15202897,0.14691875 51.8 0 0 -0.11498,-0.0153 q -0.247845,0.0639 -0.494413,0.14564 -0.158417,0.0524 -0.643888,-0.0485 c 0.484193,-0.37688 1.06548,-0.55318 1.686372,-0.68477 q 0.07282,-0.0153 0.04471,0.0537 z"
         id="path560"
         style="stroke-width:0.127755" />
      <path
         fill="#e8eae9"
         d="m 2.8412914,115.46878 q 0.3883765,0.0958 0.6847707,0.32322 0.03066,0.0728 -0.1916324,0.18141 -0.088151,0.0434 -0.0064,0.0971 l 0.3883766,0.26189 q 0.00894,0.006 0.00384,0.0153 l -0.016616,0.0294 q -0.026829,0.046 -0.072821,0.0204 -0.4931357,-0.27467 -0.7013786,-0.44331 -0.373044,-0.30661 -0.088151,-0.48547 z"
         id="path561"
         style="stroke-width:0.127755" />
      <path
         fill="#9fcea1"
         d="m 47.5212,116.07689 c -0.378155,0.7512 -1.080812,0.7857 -1.669764,1.24051 q -0.05238,0.0396 -0.08687,-0.0153 -0.456086,-0.72949 0.27723,-1.22901 0.485471,0.10093 0.643888,0.0485 0.246568,-0.0818 0.494413,-0.14564 a 0.15202897,0.14691875 51.8 0 1 0.11498,0.0153 q 0.117534,0.0677 0.226126,0.0856 z"
         id="path562"
         style="stroke-width:0.127755" />
      <path
         fill="#ffffff"
         d="m 44.8575,118.24618 -0.04855,0.0971 q -0.02938,0.0588 -0.09582,0.0498 -0.07665,-0.0115 -0.102203,-0.0881 a 0.11625744,0.11625744 0 0 0 -0.06004,-0.069 q -0.265731,-0.13031 -0.528907,-0.0575 -0.08049,0.023 -0.144364,-0.0319 c -0.274675,-0.23251 -0.691158,-0.54679 -1.045041,-0.54807 q -11.469881,-0.0434 -26.44154,-0.0409 -3.536273,0 -7.7777525,-0.0115 c -1.1894026,-0.004 -2.0402549,-0.0128 -2.4771773,1.13191 q -0.07793,0.20441 -0.2900045,0.1482 -0.2107962,-0.0549 -0.4535328,-0.0256 -0.072821,0.009 -0.098372,0.0767 -0.1379749,0.36538 -0.4049845,0.44076 0.026829,-1.56117 1.3861468,-2.27788 c 0.2542328,-0.13414 0.5237982,-0.20313 0.8150807,-0.20186 q 17.4897171,0.0243 34.9679391,-0.0179 c 1.34271,-0.004 2.25616,0.16608 2.799122,1.42575 z"
         id="path563"
         style="stroke-width:0.127755" />
      <path
         fill="#9fcea1"
         d="m 0.81509105,118.60262 q 0.44842115,0.27212 0.90706305,0.37049 0.060045,0.0128 0.034494,0.069 l -0.2018533,0.44203 q -0.028107,0.06 -0.094538,0.0498 -0.90706306,-0.14819 -1.72980874,-0.65283 -0.0536575,-0.0332 -0.0127794,-0.0792 0.99138315,-1.11786 2.39158194,-1.30439 0.5404062,-0.0715 0.9453907,0.44587 0.044715,0.0562 -0.026829,0.0549 -1.1932338,-0.0153 -2.20888982,0.50719 a 0.05493484,0.05621239 47 0 0 -0.003836,0.0971 z"
         id="path564"
         style="stroke-width:0.127755" />
      <path
         fill="#9fcea1"
         d="m 49.386431,118.65883 a 0.0868737,0.0868737 0 0 0 0.01021,-0.15714 q -1.194512,-0.65155 -2.391582,-0.2504 -0.219739,0.0741 -0.09326,-0.12137 0.122645,-0.18908 0.275952,-0.35005 a 0.83041031,0.82657766 18.6 0 1 0.517409,-0.25551 c 1.068035,-0.11115 1.892059,0.5238 2.56405,1.27372 a 0.04215929,0.04343685 51.4 0 1 -0.0077,0.0639 q -0.655383,0.4497 -1.654431,0.63622 a 0.12264522,0.12392277 71.9 0 1 -0.132866,-0.0664 l -0.190355,-0.38327 q -0.03577,-0.0728 0.04344,-0.0881 0.549346,-0.1022 1.059093,-0.3015 z"
         id="path565"
         style="stroke-width:0.127755" />
      <path
         fill="#fbcfba"
         d="m 44.8575,118.24618 q 0.20824,0.50719 0.201853,1.2009 -0.158416,0.20058 -0.281061,0.44714 -0.164804,0.33217 -0.265732,0.45226 -0.394764,0.47014 -0.960721,0.65539 -0.376877,0.12264 -1.119137,0.12008 c -10.774894,-0.0421 -21.892172,-0.0383 -32.8650859,0.0115 -0.7729194,0.003 -1.7591934,0.0601 -2.5985443,0.0434 q -0.7090437,-0.0153 -1.474298,-0.43948 -0.5467932,-0.6145 -0.6055625,-1.41936 0.2670096,-0.0754 0.4049845,-0.44076 0.025559,-0.0677 0.098372,-0.0767 0.2427366,-0.0294 0.4535328,0.0256 0.2120742,0.0562 0.2900045,-0.1482 c 0.4369224,-1.14469 1.2877747,-1.13574 2.4771773,-1.13191 q 4.2414796,0.0115 7.7777526,0.0115 14.971659,-0.003 26.44154,0.0409 c 0.353883,0.001 0.770366,0.31556 1.045041,0.54807 q 0.06388,0.0549 0.144364,0.0319 0.263176,-0.0728 0.528907,0.0575 a 0.11625744,0.11625744 0 0 1 0.06004,0.069 q 0.02556,0.0767 0.102203,0.0881 0.06643,0.009 0.09582,-0.0498 z m -1.352291,1.0906 a 1.2877748,1.2520033 1.8 0 0 -1.247814,-1.29184 1.2877748,1.2520033 1.8 0 0 -1.32646,1.21094 1.2877748,1.2520033 1.8 0 0 1.247815,1.29184 1.2877748,1.2520033 1.8 0 0 1.326459,-1.21094 z M 8.2734543,119.10214 a 0.63494451,0.63494451 0 0 0 -0.6349444,-0.63494 0.63494451,0.63494451 0 0 0 -0.6349444,0.63494 0.63494451,0.63494451 0 0 0 0.6349444,0.63495 0.63494451,0.63494451 0 0 0 0.6349444,-0.63495 z"
         id="path566"
         style="stroke-width:0.127755" />
      <path
         fill="#0c2641"
         d="m 43.505209,119.33678 a 1.2877748,1.2520033 1.8 0 1 -1.326459,1.21094 1.2877748,1.2520033 1.8 0 1 -1.247815,-1.29184 1.2877748,1.2520033 1.8 0 1 1.32646,-1.21094 1.2877748,1.2520033 1.8 0 1 1.247814,1.29184 z m -0.518305,-0.0679 a 0.6656058,0.75503462 88.5 0 0 -0.772205,-0.64561 0.6656058,0.75503462 88.5 0 0 -0.737352,0.68514 0.6656058,0.75503462 88.5 0 0 0.772205,0.64561 0.6656058,0.75503462 88.5 0 0 0.737352,-0.68514 z"
         id="path567"
         style="stroke-width:0.127755" />
      <circle
         fill="#0c2641"
         cx="7.6385131"
         cy="119.10214"
         r="0.6349445"
         id="circle567"
         style="stroke-width:0.127755" />
      <path
         fill="#9fcea1"
         d="m 46.557924,118.49786 1.064204,0.50335 a 0.18780049,0.18780049 0 0 1 0.102204,0.21208 l -0.03066,0.13542 a 0.18780049,0.18780049 0 0 1 -0.255511,0.13031 l -0.775475,-0.3245 a 0.18780049,0.18780049 0 0 1 -0.07154,-0.0537 l -0.259342,-0.31427 a 0.18780049,0.18780049 0 0 1 0.226126,-0.28873 z"
         id="path568"
         style="stroke-width:0.127755" />
      <path
         fill="#bfc9cb"
         d="m 3.543948,118.86835 q -0.1788584,0.0996 -0.2772305,-0.2108 0.074099,-0.14436 0.2005754,-0.13159 0.066434,0.006 0.098372,0.0664 0.080486,0.14819 -0.021722,0.27595 z"
         id="path569"
         style="stroke-width:0.127755" />
      <ellipse
         fill="#e8eae9"
         cx="39.095039"
         cy="120.35329"
         transform="rotate(-1.4999991)"
         rx="0.75503463"
         ry="0.66560578"
         id="ellipse569"
         style="stroke-width:0.127755" />
      <path
         fill="#9fcea1"
         d="m 3.2667175,118.65755 q 0.098372,0.31045 0.2772305,0.2108 -0.4752499,0.75503 -1.2916086,0.62983 -0.066431,-0.0102 -0.047268,-0.0741 c 0.13031,-0.43564 0.581287,-0.55573 1.0616461,-0.76653 z"
         id="path570"
         style="stroke-width:0.127755" />
      <path
         fill="#af9086"
         d="m 45.059353,119.44708 q -0.310446,2.18973 -2.606212,2.25616 -1.506236,0.0447 -6.451647,0.023 -14.325219,-0.06 -28.6491574,-0.0409 -1.2034573,0.003 -1.8575628,-0.94794 0.7652543,0.42414 1.474298,0.43948 c 0.8393509,0.0166 1.8256249,-0.0409 2.5985443,-0.0434 10.9729139,-0.0498 22.0901919,-0.0537 32.8650859,-0.0115 q 0.74226,0.003 1.119137,-0.12009 0.565957,-0.18524 0.960721,-0.65538 0.100928,-0.1201 0.265732,-0.45226 0.122645,-0.24657 0.281061,-0.44714 z"
         id="path571"
         style="stroke-width:0.127755" />
      <path
         fill="#d5dddf"
         d="m 26.246087,124.15998 c -2.389026,0.18013 -4.803603,-0.28873 -7.031657,-1.3095 q -0.160972,-0.0741 0.01662,-0.0741 l 11.496712,0.008 q 0.148196,0 0.01662,0.0703 -2.107965,1.12425 -4.498271,1.30566 z"
         id="path572"
         style="stroke-width:0.127755" />
    </g>
    <text
       xml:space="preserve"
       style="font-size:48.0807px;fill:#0c2641;fill-opacity:1;stroke-width:0.42929"
       x="4.9557223"
       y="148.66609"
       id="text726"><tspan
         sodipodi:role="line"
         id="tspan726"
         x="4.9557223"
         y="148.66609"
         style="font-style:normal;font-variant:normal;font-weight:bold;font-stretch:normal;font-size:46.2359px;font-family:'Modulus Pro';-inkscape-font-specification:'Modulus Pro, Bold';font-variant-ligatures:normal;font-variant-caps:normal;font-variant-numeric:normal;font-variant-east-asian:normal;fill-opacity:1;stroke-width:0.42929">recipeace</tspan></text>
  </g>
</svg>
